<?xml version="1.0" encoding="utf-8"?>
<!-- Generator: Adobe Illustrator 16.0.0, SVG Export Plug-In . SVG Version: 6.00 Build 0)  -->
<!DOCTYPE svg PUBLIC "-//W3C//DTD SVG 1.1//EN" "http://www.w3.org/Graphics/SVG/1.1/DTD/svg11.dtd">
<svg version="1.1" id="Layer_3" xmlns="http://www.w3.org/2000/svg" xmlns:xlink="http://www.w3.org/1999/xlink" x="0px" y="0px"
	 width="292.308px" height="262.308px" viewBox="0 0 292.308 262.308" enable-background="new 0 0 292.308 262.308"
	 xml:space="preserve">
<g>
	<circle fill="#D5EAFD" cx="146.154" cy="139.087" r="114.732"/>
	<g>
		<path fill="#D5EAFD" d="M131.385,212.32H13.861c-4.244,0-7.685,3.439-7.685,7.683v0.049c0,4.243,3.441,7.684,7.685,7.684h117.524
			c4.244,0,7.685-3.44,7.685-7.684v-0.049C139.07,215.759,135.629,212.32,131.385,212.32z"/>
		<path fill="#FFFFFF" d="M88.515,227.735h-50.35c-3.107,0-5.626,2.52-5.626,5.627v0.034c0,3.107,2.519,5.627,5.626,5.627h50.35
			c3.107,0,5.625-2.52,5.625-5.627v-0.034C94.14,230.254,91.622,227.735,88.515,227.735z"/>
		<path fill="#D5EAFD" d="M116.202,239.023H65.854c-3.107,0-5.627,2.518-5.627,5.625v0.035c0,3.106,2.52,5.627,5.627,5.627h50.349
			c3.108,0,5.627-2.521,5.627-5.627v-0.035C121.829,241.541,119.311,239.023,116.202,239.023z"/>
		<path fill="#D5EAFD" d="M225.21,37.542h-50.349c-3.107,0-5.627,2.519-5.627,5.626v0.035c0,3.107,2.52,5.625,5.627,5.625h50.349
			c3.108,0,5.627-2.519,5.627-5.625v-0.035C230.837,40.06,228.318,37.542,225.21,37.542z"/>
		<path fill="#D5EAFD" d="M257.072,60.887h-50.349c-3.107,0-5.628,2.52-5.628,5.626v0.034c0,3.108,2.521,5.627,5.628,5.627h50.349
			c3.106,0,5.627-2.519,5.627-5.627v-0.034C262.699,63.407,260.179,60.887,257.072,60.887z"/>
		<path fill="#D5EAFD" d="M280.505,60.887h-7.516c-3.106,0-5.626,2.52-5.626,5.626v0.034c0,3.108,2.52,5.627,5.626,5.627h7.516
			c3.107,0,5.626-2.519,5.626-5.627v-0.034C286.131,63.407,283.612,60.887,280.505,60.887z"/>
		<path fill="#D5EAFD" d="M41.774,239.023H31.316c-3.107,0-5.626,2.518-5.626,5.625v0.035c0,3.106,2.519,5.627,5.626,5.627h10.458
			c3.107,0,5.627-2.521,5.627-5.627v-0.035C47.401,241.541,44.881,239.023,41.774,239.023z"/>
		<path fill="#FFFFFF" d="M239.203,60.948h-30.558c-3.337,0-6.041-2.705-6.041-6.042V54.87c0-3.336,2.704-6.042,6.041-6.042h30.558
			c3.336,0,6.041,2.705,6.041,6.042v0.037C245.244,58.243,242.539,60.948,239.203,60.948z"/>
	</g>
	<path fill="#6BBCB1" d="M146.153,253.819c24.984,0,48.1-7.991,66.94-21.549c-1.919,0.518-3.771,1.196-5.53,2.043
		c-2.065-14.6-14.606-25.83-29.776-25.83c-4.258,0-8.308,0.891-11.978,2.485c-2.167-1.598-4.518-2.965-7.008-4.069l-3.608-67.694
		h-19.266l-2.74,51.4c-5.063-3.327-11.116-5.268-17.626-5.268c-17.754,0-32.146,14.393-32.146,32.146
		c0,6.705,2.054,12.927,5.563,18.077c-0.834,0.49-1.644,1.019-2.428,1.579C103.921,247.723,124.325,253.819,146.153,253.819z"/>
	<path fill="#FFFFFF" d="M104.296,245.943c12.969,5.083,27.087,7.876,41.857,7.876c20.761,0,40.231-5.515,57.031-15.157
		c-3.262-2.547-7.363-4.069-11.822-4.069c-2.98,0-5.802,0.678-8.319,1.887c-1.235-8.731-8.735-15.446-17.809-15.446
		c-2.547,0-4.969,0.53-7.164,1.484c-1.297-0.954-2.701-1.771-4.191-2.434l-2.158-40.486h-11.522l-1.639,30.741
		c-3.028-1.989-6.648-3.149-10.542-3.149c-10.619,0-19.227,8.607-19.227,19.227c0,4.008,1.229,7.731,3.328,10.812
		C108.687,239.241,105.941,242.289,104.296,245.943z"/>
	<g>
		<path fill="#6BBCB1" d="M126.696,118.651c1.688,4.591,3.104,7.839,3.697,8.694c2.005,2.9,15.468,3.164,15.468,3.164
			s13.462-0.263,15.468-3.164c0.592-0.855,2.009-4.103,3.696-8.694H126.696z"/>
		<path fill="#FFFFFF" d="M174.218,72.533c-0.572-17.13-3.149-48.67-28.356-64.043c-25.208,15.374-27.785,46.913-28.357,64.043
			c-0.574,17.131,10.884,47.44,12.889,50.339c2.005,2.899,15.468,3.162,15.468,3.162s13.462-0.263,15.468-3.162
			C163.334,119.973,174.792,89.664,174.218,72.533z"/>
		<path fill="#ECECEC" d="M145.861,8.489v117.545c0,0,13.462-0.263,15.468-3.162c2.005-2.899,13.463-33.208,12.889-50.339
			C173.646,55.402,171.068,23.864,145.861,8.489z"/>
		<path fill="#52514F" d="M126.804,29.31c6.307,1.525,13.275,2.373,20.606,2.373c6.269,0,12.272-0.624,17.824-1.758
			c-4.171-8.287-10.309-15.907-19.373-21.435C137.021,13.881,130.967,21.261,126.804,29.31z"/>
		<path fill="#DB2631" d="M147.181,29.996c6.066,0,11.837-0.697,17.064-1.95c-4.135-7.555-10.01-14.449-18.384-19.557
			c-8.153,4.973-13.938,11.638-18.054,18.958C133.624,29.077,140.208,29.996,147.181,29.996z"/>
		<ellipse fill="#DB2631" cx="145.959" cy="53.106" rx="13.605" ry="12.517"/>
		<ellipse fill="#6BBCB1" cx="145.96" cy="53.106" rx="10.545" ry="9.702"/>
		<g>
			<path fill="#EDBC8B" d="M146.134,132.616c-3.113-0.263-51.411-3.367-0.028,63.005l0.028-9.595l0.028,9.595
				C197.545,129.249,149.246,132.353,146.134,132.616z"/>
		</g>
		<path fill="#DB2631" d="M145.799,134.012c-1.24-0.147-20.486-1.906-0.011,35.642l0.011-5.429l0.011,5.429
			C166.284,132.106,147.038,133.865,145.799,134.012z"/>
		<path fill="#52514F" d="M121.93,92.258l8.016,31.831l-12.656,22.903l-5.04-25.096c-1.376-6.856-0.069-13.938,3.689-19.991
			L121.93,92.258z"/>
		<path fill="#52514F" d="M145.556,87.213c0,0-8.438,21.351,0,59.78c0,0,3.658-15.605,3.889-26.983
			c0.053-2.597,0.286-5.186,0.643-7.763C150.794,107.127,151.066,97.354,145.556,87.213z"/>
		<path fill="#52514F" d="M169.604,92.258l4.372,6.965c4.276,6.81,5.975,14.731,4.827,22.524l-3.716,25.245l-14.344-23.291
			L169.604,92.258z"/>
	</g>
</g>
</svg>
