<svg id="Layer_1" data-name="Layer 1" xmlns="http://www.w3.org/2000/svg" viewBox="0 0 178 50"><defs><style>.cls-1{fill:#fff;}</style></defs><title>Whavit White</title><path class="cls-1" d="M92.3,30.93c.5-2.29,1-4.43,1.41-6.39.2-.84.39-1.68.58-2.53s.36-1.65.54-2.4.33-1.41.46-2,.24-1,.33-1.34a3.5,3.5,0,0,1,1.14-2,3.72,3.72,0,0,1,1.58-.72,4.83,4.83,0,0,1,2,.16c0,.11-.06.25-.1.43l-.15.54-.18.77q-1,4.61-1.9,8.44c-.26,1.09-.52,2.18-.77,3.26s-.5,2.09-.73,3-.44,1.73-.63,2.41-.36,1.16-.46,1.45A3.1,3.1,0,0,1,94,35.66a5.45,5.45,0,0,1-1.89.62,8.38,8.38,0,0,1-2.33-.06c-.48-2.19-.91-4.29-1.31-6.3-.17-.86-.35-1.73-.54-2.63s-.36-1.76-.53-2.59l-.45-2.35c-.15-.73-.26-1.36-.35-1.88-.13.7-.27,1.49-.43,2.39s-.31,1.83-.47,2.81l-.51,2.89q-.27,1.43-.51,2.64c-.16.81-.32,1.51-.47,2.11a5.21,5.21,0,0,1-.43,1.23,2.83,2.83,0,0,1-1.45,1.33,5.8,5.8,0,0,1-1.8.45,8.69,8.69,0,0,1-2.2-.1c-.81-3.42-1.56-6.54-2.26-9.39-.31-1.2-.61-2.41-.89-3.62s-.55-2.34-.8-3.38-.47-1.95-.66-2.73-.32-1.34-.41-1.69-.15-.56-.2-.77A4.31,4.31,0,0,0,73,14.1c0-.18-.08-.32-.1-.43a4.67,4.67,0,0,1,1.94-.16,3.69,3.69,0,0,1,1.57.72,3.65,3.65,0,0,1,1.19,2c.08.3.19.75.32,1.34s.29,1.26.46,2,.36,1.54.55,2.4.37,1.69.57,2.53c.44,2,.91,4.1,1.41,6.39q.72-3.9,1.35-7.15.26-1.38.54-2.76c.18-.92.36-1.76.54-2.54s.33-1.45.47-2a8.51,8.51,0,0,1,.38-1.21,2.92,2.92,0,0,1,1.2-1.45,4,4,0,0,1,1.46-.46,4.88,4.88,0,0,1,1.71.2c.08.24.21.67.37,1.3s.35,1.37.55,2.23.39,1.8.6,2.82.42,2,.64,3.07C91.2,25.37,91.73,28,92.3,30.93Z"/><path class="cls-1" d="M115.9,33c0,.66,0,1.2,0,1.61s0,.75,0,1,.05.46.07.59a4.93,4.93,0,0,1-3.12-.86,3.31,3.31,0,0,1-1.08-2.78l0-4.63a7.45,7.45,0,0,0-.27-2.22,3.62,3.62,0,0,0-.73-1.31,2.17,2.17,0,0,0-1-.64,3.86,3.86,0,0,0-2.2,0,2.17,2.17,0,0,0-1,.64,3.33,3.33,0,0,0-.71,1.31,7.49,7.49,0,0,0-.26,2.22V33c0,.66,0,1.2,0,1.61s0,.75,0,1,0,.46.07.59a4.85,4.85,0,0,1-3.1-.86,3.34,3.34,0,0,1-1.07-2.78l0-15.53a3.42,3.42,0,0,1,1-2.8,4.72,4.72,0,0,1,3-.84c0,.13,0,.33-.06.59s0,.57,0,1,0,.95,0,1.6v4.7a6.81,6.81,0,0,1,1.56-.36,12.11,12.11,0,0,1,1.56-.1,11.74,11.74,0,0,1,2.56.28,5.8,5.8,0,0,1,2.31,1.06,5.68,5.68,0,0,1,1.68,2.18,8.79,8.79,0,0,1,.64,3.6Z"/><path class="cls-1" d="M120.42,27.85a7.1,7.1,0,0,1,2-.84,9.85,9.85,0,0,1,2.33-.28,10.62,10.62,0,0,1,3.25.5,6.41,6.41,0,0,0-.43-1.81,2.89,2.89,0,0,0-1.28-1.48,3.3,3.3,0,0,0-.71-.24,3.79,3.79,0,0,0-.87-.08h-.36a6,6,0,0,0-.92.14c-.3.08-.61.17-.91.28a8.72,8.72,0,0,1-.92.28,3.58,3.58,0,0,1-.89.12,2.14,2.14,0,0,1-.89-.2,2,2,0,0,1-.69-.75l-.06-.14.06-.09a7.66,7.66,0,0,1,2.32-1.69,7.53,7.53,0,0,1,2.9-.74,1.7,1.7,0,0,1,.28,0h.28a6.7,6.7,0,0,1,2.76.55,6.52,6.52,0,0,1,2.16,1.49,7.81,7.81,0,0,1,1.94,5.35v.26A8.51,8.51,0,0,1,130,34a6.73,6.73,0,0,1-2,1.7,7.12,7.12,0,0,1-2.68.82,2.58,2.58,0,0,1-.39,0h-.43a9.12,9.12,0,0,1-1.44-.12,5.71,5.71,0,0,1-1.48-.44,5.91,5.91,0,0,1-1.37-.77A4.11,4.11,0,0,1,119.14,34a4.4,4.4,0,0,1-.65-2.33v-.2a4,4,0,0,1,.52-2.13A4.21,4.21,0,0,1,120.42,27.85Zm6.8,1.57-1-.13a10,10,0,0,0-1.1-.06,6.46,6.46,0,0,0-.89.05,3.18,3.18,0,0,0-.78.18,2.41,2.41,0,0,0-1.25.82,1.5,1.5,0,0,0-.26.44,1.94,1.94,0,0,0-.13.54.8.8,0,0,0,0,.3,3,3,0,0,0,.1.7,1.69,1.69,0,0,0,.4.71,2,2,0,0,0,.77.56,3.4,3.4,0,0,0,1.36.23,1.33,1.33,0,0,0,.39,0,2.86,2.86,0,0,0,1.61-.52,2.16,2.16,0,0,0,.56-.48,3.43,3.43,0,0,0,.39-.6,4.12,4.12,0,0,0,.49-1.28,6.17,6.17,0,0,0,.14-1.22h0s0,0,0,0l-.3-.07A2.81,2.81,0,0,1,127.22,29.42Z"/><path class="cls-1" d="M142.9,34.91a3.34,3.34,0,0,1-1.37,1.47,4.25,4.25,0,0,1-1.48.46,3.48,3.48,0,0,1-1.64-.26c-.18-.39-.41-.95-.71-1.66l-1-2.38-1.15-2.75c-.41-1-.79-1.89-1.15-2.78l-1-2.41c-.3-.72-.52-1.28-.68-1.67-.08-.2-.17-.4-.26-.59s-.16-.39-.23-.56-.16-.4-.23-.59a6.12,6.12,0,0,1,1.87-.17,4.52,4.52,0,0,1,1.53.45,2.71,2.71,0,0,1,1.23,1.42c.09.25.21.57.38,1s.34.85.52,1.33.38,1,.59,1.51.41,1.05.61,1.58c.46,1.2,1,2.5,1.51,3.9.52-1.4,1-2.7,1.51-3.9.2-.53.4-1.05.62-1.58s.42-1,.61-1.51.35-.92.51-1.33.28-.72.39-1a2.53,2.53,0,0,1,1.22-1.42,4.57,4.57,0,0,1,1.54-.45,6.12,6.12,0,0,1,1.87.17,5.85,5.85,0,0,0-.26.56c-.07.17-.15.36-.23.57a5.77,5.77,0,0,0-.23.61c-.16.41-.36.95-.63,1.62s-.54,1.39-.83,2.17-.62,1.57-1,2.39-.66,1.61-1,2.37-.6,1.43-.87,2S143.08,34.58,142.9,34.91Z"/><path class="cls-1" d="M154.09,16.33a2.1,2.1,0,0,1-1.9,1.15,2.17,2.17,0,0,1-1-.23,2.08,2.08,0,0,1-.76-.77,2.24,2.24,0,0,1,0-2.15,2.22,2.22,0,0,1,.82-.87,2.1,2.1,0,0,1,1.09-.31,1.94,1.94,0,0,1,1,.26,1.85,1.85,0,0,1,.79.75,2.28,2.28,0,0,1,.26,1.06A2.2,2.2,0,0,1,154.09,16.33Zm2.56,16.93a1.12,1.12,0,0,1-.55.38,1.44,1.44,0,0,1-.79.08,1.14,1.14,0,0,1-.69-.41,1.7,1.7,0,0,1-.3-1.13V24.34c0-.66,0-1.19,0-1.59s0-.73,0-1a6.3,6.3,0,0,1,.07-.63,4.8,4.8,0,0,0-3.09.86,3.44,3.44,0,0,0-1.05,2.82l0,7.75a5.15,5.15,0,0,0,.24,1.57,3.64,3.64,0,0,0,.76,1.31,3.31,3.31,0,0,0,1.26.87,3.73,3.73,0,0,0,1.77.22,2.24,2.24,0,0,0,1.55-.61,2.91,2.91,0,0,0,.65-1.13A4.3,4.3,0,0,0,156.65,33.26Z"/><path class="cls-1" d="M167.35,33.33a1,1,0,0,0,0,.23,1.81,1.81,0,0,1,.07.49,2.23,2.23,0,0,1-.26,1.07,2.5,2.5,0,0,1-.72.8,3.76,3.76,0,0,1-2.24.66,5.09,5.09,0,0,1-2.13-.49,5.74,5.74,0,0,1-1.9-1.48,7.27,7.27,0,0,1-1.36-2.44,10.45,10.45,0,0,1-.51-3.43l0-9.49a3.44,3.44,0,0,1,1-2.82,4.74,4.74,0,0,1,3.05-.85c0,.15,0,.36-.06.62s0,.56-.05,1,0,.93,0,1.59l0,2.07h4.4a3.33,3.33,0,0,1-.82,2.36,3,3,0,0,1-2.33.89h-1.25l0,4.66a9,9,0,0,0,.25,2.31,4.71,4.71,0,0,0,.67,1.53,2.81,2.81,0,0,0,2.3,1.11,4.41,4.41,0,0,0,1.18-.16Z"/><path class="cls-1" d="M33.43,47a22,22,0,1,1,22-22A22,22,0,0,1,33.43,47Zm0-43.11A21.1,21.1,0,1,0,54.53,25,21.13,21.13,0,0,0,33.43,3.9Z"/><path class="cls-1" d="M38,30.31a.15.15,0,0,0,.29,0c.36-1.62.69-3.14,1-4.56.16-.68.32-1.38.47-2.08s.3-1.35.44-2,.27-1.16.38-1.64.2-.85.27-1.11a2.84,2.84,0,0,1,.95-1.67,3,3,0,0,1,1.29-.59,4,4,0,0,1,1.62.13l-.08.35q-.06.2-.12.45t-.15.63q-.84,3.78-1.57,6.93l-.63,2.69c-.21.89-.4,1.71-.59,2.48s-.37,1.42-.53,2-.29,1-.38,1.19a2.5,2.5,0,0,1-1.14,1.37A4.7,4.7,0,0,1,38,35.4a6,6,0,0,1-1.13,0,1,1,0,0,1-.94-.8c-.34-1.55-.65-3-.93-4.47-.14-.7-.29-1.42-.44-2.15s-.3-1.45-.43-2.14-.26-1.32-.38-1.92-.21-1.12-.28-1.55c-.11.57-.23,1.23-.36,2s-.25,1.51-.39,2.31-.27,1.59-.41,2.37-.29,1.51-.42,2.17-.27,1.25-.39,1.74a4.91,4.91,0,0,1-.35,1,2.41,2.41,0,0,1-1.19,1.09,4.85,4.85,0,0,1-1.48.36,5.39,5.39,0,0,1-.9,0,1.2,1.2,0,0,1-1.11-.94q-.88-3.72-1.66-6.87c-.25-1-.5-2-.73-3s-.45-1.93-.66-2.78-.39-1.6-.54-2.24-.27-1.1-.34-1.39-.12-.46-.16-.63-.07-.32-.11-.45l-.08-.35a3.82,3.82,0,0,1,1.59-.13A2.76,2.76,0,0,1,26,19c.07.26.16.62.27,1.11s.23,1,.38,1.64.29,1.27.44,2,.31,1.4.47,2.08c.31,1.37.63,2.84,1,4.4a.18.18,0,0,0,.35,0c.34-1.81.65-3.48.95-5,.14-.76.29-1.51.44-2.27s.3-1.45.45-2.09.27-1.19.39-1.66a7.07,7.07,0,0,1,.31-1,2.35,2.35,0,0,1,1-1.19,3.21,3.21,0,0,1,1.2-.38,4.11,4.11,0,0,1,1.41.16c.07.2.17.56.31,1.07s.28,1.12.44,1.83.33,1.49.5,2.32.35,1.68.53,2.52Q37.36,27.14,38,30.31Z"/></svg>