<?xml version="1.0" encoding="utf-8"?>
<!-- Generator: Adobe Illustrator 16.0.0, SVG Export Plug-In . SVG Version: 6.00 Build 0)  -->
<!DOCTYPE svg PUBLIC "-//W3C//DTD SVG 1.1//EN" "http://www.w3.org/Graphics/SVG/1.1/DTD/svg11.dtd">
<svg version="1.1" id="Layer_2" xmlns="http://www.w3.org/2000/svg" xmlns:xlink="http://www.w3.org/1999/xlink" x="0px" y="0px"
	 width="292.308px" height="262.308px" viewBox="0 0 292.308 262.308" enable-background="new 0 0 292.308 262.308"
	 xml:space="preserve">
<g>
	<circle fill="#D5EAFD" cx="146.155" cy="136.961" r="114.732"/>
	<g>
		<path fill="#D5EAFD" d="M131.493,210.194H13.754c-4.185,0-7.577,3.392-7.577,7.576v0.263c0,4.185,3.393,7.576,7.577,7.576h117.739
			c4.184,0,7.576-3.392,7.576-7.576v-0.263C139.069,213.585,135.677,210.194,131.493,210.194z"/>
		<path fill="#FFFFFF" d="M88.593,225.609H38.086c-3.063,0-5.548,2.485-5.548,5.549v0.19c0,3.064,2.484,5.55,5.548,5.55h50.507
			c3.064,0,5.547-2.485,5.547-5.55v-0.19C94.14,228.094,91.657,225.609,88.593,225.609z"/>
		<path fill="#D5EAFD" d="M116.281,236.898H65.774c-3.063,0-5.547,2.482-5.547,5.547v0.192c0,3.064,2.483,5.547,5.547,5.547h50.507
			c3.063,0,5.548-2.482,5.548-5.547v-0.192C121.829,239.38,119.345,236.898,116.281,236.898z"/>
		<path fill="#D5EAFD" d="M225.289,35.415h-50.507c-3.063,0-5.547,2.484-5.547,5.547v0.192c0,3.064,2.484,5.548,5.547,5.548h50.507
			c3.064,0,5.548-2.484,5.548-5.548v-0.192C230.837,37.899,228.354,35.415,225.289,35.415z"/>
		<path fill="#D5EAFD" d="M257.151,58.761h-50.508c-3.063,0-5.546,2.483-5.546,5.547V64.5c0,3.064,2.482,5.547,5.546,5.547h50.508
			c3.063,0,5.548-2.483,5.548-5.547v-0.192C262.699,61.245,260.215,58.761,257.151,58.761z"/>
		<path fill="#D5EAFD" d="M280.584,58.761h-7.673c-3.063,0-5.548,2.483-5.548,5.547V64.5c0,3.064,2.484,5.547,5.548,5.547h7.673
			c3.064,0,5.547-2.483,5.547-5.547v-0.192C286.131,61.245,283.648,58.761,280.584,58.761z"/>
		<path fill="#D5EAFD" d="M41.854,236.898H31.237c-3.063,0-5.547,2.482-5.547,5.547v0.192c0,3.064,2.483,5.547,5.547,5.547h10.616
			c3.063,0,5.548-2.482,5.548-5.547v-0.192C47.401,239.38,44.917,236.898,41.854,236.898z"/>
		<path fill="#FFFFFF" d="M239.288,58.821h-30.728c-3.289,0-5.956-2.667-5.956-5.956v-0.207c0-3.29,2.667-5.956,5.956-5.956h30.728
			c3.29,0,5.956,2.666,5.956,5.956v0.207C245.244,56.155,242.578,58.821,239.288,58.821z"/>
	</g>
	<g>
		<path fill="#EDBC8B" d="M202.884,49.147c-0.372-2.57-3.094-4.082-5.488-3.076l-10.753,4.516l-13.414,6.144
			c-1.95,0.893-2.844,3.168-2.023,5.15l2.495,6.036c0.905,2.187,3.506,3.109,5.586,1.981l12.444-6.744
			c0.104-0.056,0.211-0.107,0.317-0.153C202.085,58.732,203.455,53.077,202.884,49.147z"/>
		<path fill="#EDBC8B" d="M169.735,58.33c0,0-60.743,30.517-63.677,28.79c0,0,3.011-10.878-4.452-21.264l10.176-12.982V36.367
			c0,0-3.93-2.345-5.817,0.827c-1.889,3.172-6.698,9.78-6.698,9.78s-16.903,9.243-13.6,16.659c0,0-20.298,17.41-10.384,52.771
			l-18.369,24.348l42.353,20.846l6.698-7.471l83.351-28.021l-2.673-75.521L169.735,58.33z"/>
		<g>
			<path fill="#52514F" d="M181.345,145.763h-59.82c-5.38,0-9.742-4.362-9.742-9.74V20.237c0-5.38,4.362-9.741,9.742-9.741h59.82
				c5.379,0,9.741,4.361,9.741,9.741v115.786C191.086,141.401,186.724,145.763,181.345,145.763z"/>
			<rect x="116.504" y="23.977" fill="#FFFFFF" width="69.861" height="101.016"/>
			<circle fill="#7F7E7C" cx="151.435" cy="135.286" r="6.7"/>
			<g>
				<path fill="#7F7E7C" d="M165.557,15.361h-18.122c-1.188,0-2.163,0.973-2.163,2.163v0.075c0,1.19,0.975,2.164,2.163,2.164h18.122
					c1.189,0,2.163-0.974,2.163-2.164v-0.075C167.72,16.334,166.746,15.361,165.557,15.361z"/>
				<path fill="#7F7E7C" d="M137.953,14.804h-0.094c-1.491,0-2.711,1.22-2.711,2.71v0.094c0,1.49,1.22,2.71,2.711,2.71h0.094
					c1.49,0,2.71-1.22,2.71-2.71v-0.094C140.663,16.024,139.443,14.804,137.953,14.804z"/>
			</g>
			<rect x="120.125" y="27.281" fill="#DA1224" width="62.781" height="9.913"/>
			<g>
				<rect x="120.125" y="40.499" fill="#6BBCB1" width="32.657" height="32.657"/>
				<g>
					<path fill="#C7C6C6" d="M125.327,61.315l6.216-10.539c0.568-0.963,1.94-1.017,2.582-0.102l7.388,10.539
						c0.713,1.019-0.016,2.419-1.26,2.419h-13.602C125.463,63.633,124.723,62.34,125.327,61.315z"/>
					<path fill="#E0E0E0" d="M134.781,61.801l4.913-8.33c0.448-0.761,1.534-0.804,2.041-0.081l5.838,8.33
						c0.564,0.805-0.011,1.912-0.995,1.912h-10.75C134.889,63.633,134.304,62.611,134.781,61.801z"/>
				</g>
			</g>
			<rect x="156.496" y="40.499" fill="#E0E0E0" width="26.41" height="4.091"/>
			<rect x="156.496" y="50.02" fill="#E0E0E0" width="26.41" height="4.091"/>
			<rect x="156.496" y="59.542" fill="#E0E0E0" width="26.41" height="4.091"/>
			<rect x="156.496" y="69.064" fill="#E0E0E0" width="26.41" height="4.091"/>
			<rect x="120.125" y="78.586" fill="#E0E0E0" width="62.781" height="4.091"/>
			<rect x="120.125" y="88.108" fill="#E0E0E0" width="62.781" height="4.091"/>
			<rect x="120.125" y="97.63" fill="#E0E0E0" width="62.781" height="4.091"/>
			<rect x="120.125" y="107.151" fill="#E0E0E0" width="62.781" height="4.091"/>
			<rect x="120.125" y="116.673" fill="#E0E0E0" width="62.781" height="4.091"/>
			<rect x="163.954" y="107.134" fill="#3B4141" width="19.117" height="13.612"/>
			<rect x="120.125" y="107.134" fill="#3B4141" width="39.415" height="13.612"/>
			<circle fill="#E0E0E0" cx="176.764" cy="32.079" r="2.519"/>
			<g>
				<path fill="#FFFFFF" d="M172.767,118.503l-4.198-3.645c-0.27-0.234-0.299-0.642-0.065-0.912c0.234-0.27,0.642-0.299,0.912-0.064
					l3.126,2.713l4.968-6.947c0.208-0.291,0.611-0.357,0.9-0.15c0.291,0.208,0.358,0.612,0.15,0.902L172.767,118.503z"/>
			</g>
		</g>
		<g>
			<path fill="#EDBC8B" d="M175.426,203.645l-23.122-23.315c-3.438-3.464-5.276-8.203-5.076-13.08l0.517-12.65
				c0,0,11.658-1.102,13.025,9.833l14.656,19.101V203.645z"/>
			<path opacity="0.11" fill="#201604" d="M175.426,203.645l-23.039-23.229c-3.49-3.521-5.358-8.332-5.155-13.284l0.513-12.532
				c0,0,11.658-1.102,13.025,9.833l14.656,19.101V203.645z"/>
			<path fill="#EDBC8B" d="M230.991,145.538c0,0,13.868,34.554,4.37,55.321l2.929,5.665l-42.639,15.104v-6.691
				c0,0-20.278,5.276-30.437-36.264l-7.169-23.357L230.991,145.538z"/>
			<path fill="#EDBC8B" d="M151.736,94.432l-0.313,0.083c-4.979,1.334-7.936,6.451-6.6,11.43l15.916,59.43
				c1.334,4.979,6.451,7.933,11.43,6.601l0.313-0.083c4.979-1.335,7.934-6.45,6.601-11.432l-15.918-59.429
				C161.833,96.054,156.715,93.098,151.736,94.432z"/>
			<path fill="#FFFFFF" d="M151.366,107.655l8.929-1.86c0.913-0.189,1.46-0.956,1.216-1.702l-0.616-1.891
				c-0.919-2.815-4.572-5.119-8.122-5.119l0,0c-3.324,0.731-5.297,3.538-4.407,6.269l0.943,3.278
				C149.526,107.383,150.454,107.845,151.366,107.655z"/>
			<path fill="#EDBC8B" d="M186.452,137.541l-0.83,0.092c-5.594,0.624-9.623,5.664-8.999,11.259l0.038,0.352
				c0.625,5.592,5.665,9.621,11.26,8.999l0.828-0.094c5.596-0.624,9.625-5.664,9-11.259l-0.039-0.352
				C197.086,140.946,192.046,136.916,186.452,137.541z"/>
			<path fill="#EDBC8B" d="M204.728,140.095l-0.779,0.086c-5.261,0.587-9.051,5.327-8.465,10.59l0.038,0.329
				c0.587,5.26,5.326,9.051,10.588,8.464l0.78-0.089c5.261-0.584,9.05-5.326,8.463-10.586l-0.036-0.33
				C214.729,143.296,209.988,139.508,204.728,140.095z"/>
			<path fill="#EDBC8B" d="M221.587,139.179l-4.489,0.501c-4.742,0.528-8.159,4.804-7.629,9.546l0.033,0.298
				c0.528,4.742,4.803,8.16,9.546,7.63l4.488-0.499c4.743-0.53,8.159-4.804,7.631-9.546l-0.033-0.298
				C230.604,142.066,226.329,138.651,221.587,139.179z"/>
			<path fill="#6BBCB1" d="M247.781,209.245l-56.045,19.272l5.83,16.957c1.687,4.903,7.028,7.512,11.933,5.825l38.286-13.163
				c4.905-1.687,7.514-7.029,5.827-11.935L247.781,209.245z"/>
			
				<rect x="191.96" y="213.336" transform="matrix(0.9457 -0.3252 0.3252 0.9457 -58.3929 82.9391)" fill="#FFFFFF" width="53.96" height="5.664"/>
			<path fill="#FFFFFF" d="M147.377,163.553c0,0,3.431-2.582,3.194-6.356c-0.235-3.777-2.827-2.598-2.827-2.598L147.377,163.553z"/>
		</g>
		<g>
			<g>
				<polygon fill="#EDBC8B" points="198.729,85.452 191.086,92.199 191.108,88.108 				"/>
				<path fill="#EDBC8B" d="M195.252,87.413h-0.14c-2.22,0-4.019-1.799-4.019-4.019V73.145c0-2.219,1.799-4.019,4.019-4.019h0.14
					c2.22,0,4.019,1.8,4.019,4.019v10.249C199.271,85.614,197.472,87.413,195.252,87.413z"/>
				<ellipse fill="#EDBC8B" cx="191.108" cy="78.586" rx="8.202" ry="9.522"/>
				<path fill="#FFFFFF" d="M192.266,73.532c0-1.079-1.112-1.798-2.1-1.36c-2.222,0.987-3.801,3.486-3.801,6.415
					s1.579,5.427,3.801,6.415c0.987,0.438,2.1-0.282,2.1-1.361V73.532z"/>
			</g>
			<g>
				<polygon fill="#EDBC8B" points="198.729,106.384 191.086,111.682 191.108,108.47 				"/>
				<path fill="#EDBC8B" d="M195.252,107.923h-0.14c-2.22,0-4.019-1.799-4.019-4.019v-6.32c0-2.219,1.799-4.019,4.019-4.019h0.14
					c2.22,0,4.019,1.799,4.019,4.019v6.32C199.271,106.125,197.472,107.923,195.252,107.923z"/>
				<ellipse fill="#EDBC8B" cx="191.108" cy="100.993" rx="8.202" ry="7.476"/>
				<path fill="#FFFFFF" d="M192.266,97.46c0-1.094-1.083-1.861-2.115-1.498c-2.215,0.779-3.785,2.737-3.785,5.03
					c0,2.294,1.57,4.253,3.785,5.032c1.032,0.363,2.115-0.404,2.115-1.499V97.46z"/>
			</g>
			<g>
				<path fill="#EDBC8B" d="M195.173,124.042l-0.079,0.034c-1.253,0.535-2.704-0.048-3.24-1.301l-2.476-5.798
					c-0.534-1.253,0.047-2.704,1.302-3.239l0.079-0.034c1.253-0.536,2.703,0.047,3.238,1.301l2.476,5.797
					C197.009,122.056,196.426,123.506,195.173,124.042z"/>
				
					<ellipse transform="matrix(0.9197 -0.3927 0.3927 0.9197 -31.8234 84.5258)" fill="#EDBC8B" cx="190.701" cy="120.051" rx="5.038" ry="5.853"/>
				<path fill="#FFFFFF" d="M190.269,117.229c-0.337-0.788-1.184-1.079-1.656-0.569c-1.01,1.095-1.296,2.884-0.591,4.535
					s2.194,2.683,3.685,2.71c0.694,0.012,1.071-0.802,0.735-1.589L190.269,117.229z"/>
			</g>
		</g>
		<path fill="#FFFFFF" d="M101.606,43.704c0,0,2.941,1.175,4.987-1.16s3.619-7.011,3.619-7.011s-2.176-1.547-4.248,1.661
			C103.89,40.403,101.606,43.704,101.606,43.704z"/>
		<path fill="#6BBCB1" d="M103.896,166.223l-53.157-26.211l-13.703,27.795c-2.632,5.341-0.438,11.804,4.902,14.437l33.82,16.672
			c5.34,2.636,11.802,0.439,14.435-4.9L103.896,166.223z"/>
		
			<rect x="51.687" y="147.794" transform="matrix(0.8969 0.4422 -0.4422 0.8969 74.7251 -19.2595)" fill="#FFFFFF" width="53.959" height="5.665"/>
	</g>
</g>
</svg>
