<svg id="Layer_1" data-name="Layer 1" xmlns="http://www.w3.org/2000/svg" viewBox="0 0 540 540"><defs><style>.cls-1,.cls-3{fill:#1281dd;}.cls-1{opacity:0.03;}.cls-2{fill:none;stroke:#1281dd;stroke-linecap:round;stroke-linejoin:round;stroke-width:12px;}</style></defs><title>Choose WhavPro</title><path class="cls-1" d="M434.86,266c-7,51.1-78.64,114.39-153.89,153.89C175.86,475.08,195.46,316.5,127.08,266,42.29,203.43,216.88,56.31,281,112.13,337,160.91,446.34,181.81,434.86,266Z"/><path class="cls-2" d="M342.23,175.15a59.92,59.92,0,1,1-59.92-59.92A60.08,60.08,0,0,1,342.23,175.15Z"/><path class="cls-3" d="M346.16,274.59l-9,8.84a131.53,131.53,0,0,0-58.84-14,121.31,121.31,0,0,0-58.59,14.93c-34.75,19.21-56.34,54.49-56.34,92.06a6,6,0,0,1-12,0,113.28,113.28,0,0,1,17.29-60,123.87,123.87,0,0,1,45.25-42.57,133.27,133.27,0,0,1,64.39-16.43A143.73,143.73,0,0,1,346.16,274.59Z"/><path class="cls-3" d="M373.88,96.8c0,1-2,1.84-3.72,2.26-.46,1.72-1.22,3.55-2.09,3.55s-1.66-1.93-2.11-3.69c-1.77-.45-3.7-1.23-3.7-2.12s1.83-1.63,3.56-2.08c.41-1.69,1.27-3.73,2.25-3.73s1.8,1.93,2.22,3.59C372,95,373.88,95.84,373.88,96.8Z"/><path class="cls-3" d="M373.88,235.07c0,1-2,1.84-3.72,2.26-.46,1.72-1.22,3.55-2.09,3.55s-1.66-1.93-2.11-3.69c-1.77-.45-3.7-1.23-3.7-2.12s1.83-1.63,3.56-2.08c.41-1.69,1.27-3.73,2.25-3.73s1.8,1.93,2.22,3.59C372,233.27,373.88,234.11,373.88,235.07Z"/><path class="cls-3" d="M179.6,185.78c0,1-2,1.84-3.72,2.26-.46,1.72-1.22,3.55-2.09,3.55s-1.66-1.93-2.11-3.69c-1.77-.45-3.7-1.24-3.7-2.12s1.83-1.63,3.56-2.08c.41-1.69,1.27-3.73,2.25-3.73s1.8,1.93,2.22,3.59C177.67,184,179.6,184.82,179.6,185.78Z"/><path class="cls-2" d="M435.82,289.93a63.33,63.33,0,1,1-103-10.33"/><path class="cls-2" d="M340.11,272.46a63.34,63.34,0,0,1,77.11-3.1"/><path class="cls-3" d="M378.76,343.73a4.83,4.83,0,0,1-3.53-1.52l-24.82-26.33a4.85,4.85,0,1,1,7-6.65l21.65,23,53.32-45.79a4.85,4.85,0,0,1,6.31,7.36l-56.82,48.8A4.87,4.87,0,0,1,378.76,343.73Z"/></svg>