<svg id="Layer_1" data-name="Layer 1" xmlns="http://www.w3.org/2000/svg" viewBox="0 0 540 540"><defs><style>.cls-1,.cls-2{fill:#1281dd;}.cls-1{opacity:0.03;}.cls-3{fill:none;stroke:#1281dd;stroke-linecap:round;stroke-linejoin:round;stroke-width:12px;}</style></defs><title>Make A Request</title><path class="cls-1" d="M405.81,285.2c-7,51.11-78.64,114.4-153.89,153.9C146.81,494.26,166.4,335.68,98,285.2c-84.79-62.58,89.8-209.71,153.89-153.89C307.92,180.09,417.29,201,405.81,285.2Z"/><path class="cls-2" d="M346.17,116c0,1.21-2.51,2.26-4.59,2.77-.55,2.12-1.49,4.38-2.56,4.38s-2-2.38-2.6-4.55c-2.17-.55-4.55-1.51-4.55-2.6s2.25-2,4.37-2.57c.52-2.07,1.57-4.58,2.78-4.58s2.21,2.37,2.74,4.41C343.79,113.78,346.17,114.8,346.17,116Z"/><path class="cls-2" d="M361.07,207.46c0,1-2,1.85-3.73,2.26-.45,1.72-1.22,3.55-2.08,3.55s-1.67-1.93-2.12-3.69c-1.76-.45-3.69-1.23-3.69-2.12s1.83-1.62,3.55-2.08c.42-1.69,1.27-3.73,2.26-3.73s1.79,1.93,2.22,3.59C359.14,205.67,361.07,206.5,361.07,207.46Z"/><path class="cls-2" d="M141.07,205c0,1.08-2.22,2-4.06,2.46-.49,1.88-1.33,3.87-2.27,3.87s-1.82-2.1-2.31-4c-1.92-.49-4-1.34-4-2.31s2-1.77,3.87-2.27c.45-1.83,1.39-4.06,2.46-4.06s2,2.11,2.42,3.91C139,203,141.07,203.91,141.07,205Z"/><path class="cls-2" d="M317,448.17H225.13a4.59,4.59,0,0,1-4.59-4.59V422.91a1.12,1.12,0,0,0-.33-.8,2.19,2.19,0,0,1-.21-.23l-.75-.74a160.79,160.79,0,0,1-43.74-77.78,35.49,35.49,0,0,1,14.79-37.45l9.32-6.21a4.59,4.59,0,0,1,7.14,3.82v39a1.15,1.15,0,1,0,2.29,0V207.07a16.08,16.08,0,0,1,32.15,0V319.58a1.15,1.15,0,0,0,2.3,0V279.4a16.07,16.07,0,0,1,32.14,0v40.18a1.15,1.15,0,0,0,2.3,0v-28.7a16.08,16.08,0,0,1,32.15,0v28.7a1.15,1.15,0,1,0,2.29,0V302.36a16.08,16.08,0,0,1,32.15,0v44.71a135.11,135.11,0,0,1-22.77,75.2,1.2,1.2,0,0,0-.19.64v20.67A4.6,4.6,0,0,1,317,448.17ZM229.72,439h82.66V422.91a10.36,10.36,0,0,1,1.73-5.72,126,126,0,0,0,21.23-70.12V302.36a6.89,6.89,0,1,0-13.77,0v17.22a10.34,10.34,0,0,1-20.67,0v-28.7a6.89,6.89,0,0,0-13.78,0v28.7a10.33,10.33,0,0,1-20.66,0V279.4a6.89,6.89,0,0,0-13.78,0v40.18a10.33,10.33,0,0,1-20.66,0V207.07a6.89,6.89,0,0,0-13.78,0V342.54a10.34,10.34,0,1,1-20.67,0V312.1l-2.17,1.45a26.24,26.24,0,0,0-10.94,27.7,151.69,151.69,0,0,0,41.24,73.36c.52.51.84.82,1.08,1.08a10.4,10.4,0,0,1,2.94,7.22Z"/><path class="cls-3" d="M185.18,391.82A23.82,23.82,0,0,1,161.35,368V134a23.82,23.82,0,0,1,23.83-23.82h94.23A23.82,23.82,0,0,1,303.24,134V263.94"/><path class="cls-2" d="M201,207.46A3.44,3.44,0,0,0,204.4,204a20.63,20.63,0,1,1,41.25,0,3.44,3.44,0,0,0,6.88,0,27.5,27.5,0,0,0-55,0A3.44,3.44,0,0,0,201,207.46Z"/></svg>