<?xml version="1.0" encoding="utf-8"?>
<!-- Generator: Adobe Illustrator 16.0.0, SVG Export Plug-In . SVG Version: 6.00 Build 0)  -->
<!DOCTYPE svg PUBLIC "-//W3C//DTD SVG 1.1//EN" "http://www.w3.org/Graphics/SVG/1.1/DTD/svg11.dtd">
<svg version="1.1" id="Layer_1" xmlns="http://www.w3.org/2000/svg" xmlns:xlink="http://www.w3.org/1999/xlink" x="0px" y="0px"
	 width="292.308px" height="262.308px" viewBox="0 0 292.308 262.308" enable-background="new 0 0 292.308 262.308"
	 xml:space="preserve">
<g>
	<circle fill="#D5EAFD" cx="146.153" cy="131.153" r="114.817"/>
	<g>
		<path fill="#D5EAFD" d="M131.351,204.44H13.785c-4.26,0-7.713,3.455-7.713,7.715l0,0c0,4.262,3.453,7.713,7.713,7.713h117.565
			c4.26,0,7.714-3.451,7.714-7.713l0,0C139.064,207.895,135.61,204.44,131.351,204.44z"/>
		<path fill="#FFFFFF" d="M88.453,219.868H38.102c-3.12,0-5.648,2.529-5.648,5.648l0,0c0,3.119,2.528,5.648,5.648,5.648h50.352
			c3.119,0,5.648-2.529,5.648-5.648l0,0C94.102,222.397,91.572,219.868,88.453,219.868z"/>
		<path fill="#D5EAFD" d="M116.163,231.165H65.811c-3.12,0-5.647,2.529-5.647,5.646l0,0c0,3.121,2.527,5.648,5.647,5.648h50.353
			c3.119,0,5.647-2.527,5.647-5.648l0,0C121.811,233.694,119.282,231.165,116.163,231.165z"/>
		<path fill="#D5EAFD" d="M225.252,29.531H174.9c-3.121,0-5.648,2.529-5.648,5.648l0,0c0,3.12,2.527,5.648,5.648,5.648h50.352
			c3.12,0,5.648-2.528,5.648-5.648l0,0C230.9,32.06,228.372,29.531,225.252,29.531z"/>
		<path fill="#D5EAFD" d="M257.138,52.895h-50.352c-3.121,0-5.648,2.529-5.648,5.648l0,0c0,3.12,2.527,5.648,5.648,5.648h50.352
			c3.12,0,5.648-2.528,5.648-5.648l0,0C262.786,55.423,260.258,52.895,257.138,52.895z"/>
		<path fill="#D5EAFD" d="M280.587,52.895h-7.485c-3.119,0-5.648,2.529-5.648,5.648l0,0c0,3.12,2.529,5.648,5.648,5.648h7.485
			c3.12,0,5.648-2.528,5.648-5.648l0,0C286.235,55.423,283.707,52.895,280.587,52.895z"/>
		<path fill="#D5EAFD" d="M41.679,231.165H31.248c-3.12,0-5.648,2.529-5.648,5.646l0,0c0,3.121,2.528,5.648,5.648,5.648h10.431
			c3.119,0,5.648-2.527,5.648-5.648l0,0C47.327,233.694,44.798,231.165,41.679,231.165z"/>
		<path fill="#FFFFFF" d="M239.254,52.956h-30.543c-3.35,0-6.064-2.715-6.064-6.064l0,0c0-3.349,2.715-6.064,6.064-6.064h30.543
			c3.35,0,6.063,2.715,6.063,6.064l0,0C245.317,50.241,242.604,52.956,239.254,52.956z"/>
	</g>
	<g id="åêðàí_2_">
		<path fill="#3B4141" d="M31.084,191.417c0.076,3.314,2.782,5.98,6.116,5.98h217.908c3.333,0,6.039-2.666,6.116-5.98H31.084z"/>
		<path fill="#52514F" d="M224.506,163.311H67.801c-2.376,0-4.673,0.852-6.476,2.398l-30.249,25.992h230.155l-30.248-25.992
			C229.181,164.163,226.883,163.311,224.506,163.311z"/>
		<g>
			<polygon fill="#3B4141" points="121.657,182.491 119.948,187.049 172.358,187.049 170.84,182.491 			"/>
			<rect x="119.948" y="188.377" fill="#3B4141" width="25.351" height="1.709"/>
			<rect x="147.009" y="188.377" fill="#3B4141" width="25.35" height="1.709"/>
		</g>
		<g>
			<polygon fill="#3B4141" points="225.914,165.526 66.395,165.526 51.087,181.264 241.222,181.264 			"/>
			<g>
				<polygon fill="#515151" points="78.606,167.141 69.616,167.141 67.815,169.108 77.017,169.108 				"/>
				<polygon fill="#515151" points="90.592,167.141 81.603,167.141 80.084,169.108 89.284,169.108 				"/>
				<polygon fill="#515151" points="102.577,167.141 93.588,167.141 92.352,169.108 101.552,169.108 				"/>
				<polygon fill="#515151" points="114.563,167.141 105.574,167.141 104.619,169.108 113.819,169.108 				"/>
				<polygon fill="#515151" points="126.549,167.141 117.56,167.141 116.887,169.108 126.088,169.108 				"/>
				<polygon fill="#515151" points="138.535,167.141 129.545,167.141 129.154,169.108 138.355,169.108 				"/>
				<polygon fill="#515151" points="150.521,167.141 141.53,167.141 141.422,169.108 150.622,169.108 				"/>
				<polygon fill="#515151" points="162.505,167.141 153.517,167.141 153.689,169.108 162.89,169.108 				"/>
				<polygon fill="#515151" points="174.491,167.141 165.501,167.141 165.957,169.108 175.157,169.108 				"/>
				<polygon fill="#515151" points="186.478,167.141 177.487,167.141 178.225,169.108 187.425,169.108 				"/>
				<polygon fill="#515151" points="198.462,167.141 189.474,167.141 190.492,169.108 199.692,169.108 				"/>
				<polygon fill="#515151" points="210.448,167.141 201.459,167.141 202.76,169.108 211.961,169.108 				"/>
				<polygon fill="#515151" points="222.434,167.141 213.445,167.141 215.028,169.108 224.229,169.108 				"/>
			</g>
			<g>
				<polygon fill="#515151" points="73.518,173.44 63.851,173.44 61.766,175.719 71.677,175.719 				"/>
				<polygon fill="#515151" points="83.736,173.44 73.518,173.44 71.677,175.719 82.154,175.719 				"/>
				<polygon fill="#515151" points="96.365,173.44 86.699,173.44 85.192,175.719 95.104,175.719 				"/>
				<polygon fill="#515151" points="109.547,173.44 99.881,173.44 98.708,175.719 108.619,175.719 				"/>
				<polygon fill="#515151" points="122.729,173.44 113.063,173.44 112.223,175.719 122.135,175.719 				"/>
				<polygon fill="#515151" points="135.91,173.44 126.244,173.44 125.739,175.719 135.65,175.719 				"/>
				<polygon fill="#515151" points="149.092,173.44 139.425,173.44 139.255,175.719 149.167,175.719 				"/>
				<polygon fill="#515151" points="162.273,173.44 152.606,173.44 152.77,175.719 162.681,175.719 				"/>
				<polygon fill="#515151" points="175.455,173.44 165.788,173.44 166.285,175.719 176.197,175.719 				"/>
				<polygon fill="#515151" points="188.637,173.44 178.97,173.44 179.801,175.719 189.712,175.719 				"/>
				<polygon fill="#515151" points="201.817,173.44 192.151,173.44 193.317,175.719 203.229,175.719 				"/>
				<polygon fill="#515151" points="214.999,173.44 205.333,173.44 206.831,175.719 216.744,175.719 				"/>
				<polygon fill="#515151" points="228.181,173.44 218.515,173.44 220.349,175.719 230.26,175.719 				"/>
			</g>
			<g>
				<polygon fill="#515151" points="70.675,176.959 60.63,176.959 58.375,179.422 68.685,179.422 				"/>
				<polygon fill="#515151" points="89.251,176.959 79.206,176.959 77.441,179.422 87.751,179.422 				"/>
				<polygon fill="#515151" points="108.114,176.959 98.069,176.959 96.802,179.422 107.111,179.422 				"/>
				<polygon fill="#515151" points="176.602,176.959 111.767,176.959 110.86,179.422 177.404,179.422 				"/>
				<polygon fill="#515151" points="204.605,176.959 182.55,176.959 183.509,179.422 206.146,179.422 				"/>
				<polygon fill="#515151" points="231.391,176.959 209.335,176.959 211.002,179.422 233.638,179.422 				"/>
			</g>
			<g>
				<polygon fill="#515151" points="66.794,170.176 64.857,172.292 72.265,172.292 74.024,170.176 				"/>
				<polygon fill="#515151" points="86.445,170.176 77.13,170.176 75.445,172.292 84.988,172.292 				"/>
				<polygon fill="#515151" points="98.866,170.176 89.551,170.176 88.169,172.292 97.713,172.292 				"/>
				<polygon fill="#515151" points="111.287,170.176 101.972,170.176 100.894,172.292 110.437,172.292 				"/>
				<polygon fill="#515151" points="123.708,170.176 114.393,170.176 113.617,172.292 123.16,172.292 				"/>
				<polygon fill="#515151" points="136.129,170.176 126.813,170.176 126.341,172.292 135.884,172.292 				"/>
				<polygon fill="#515151" points="148.549,170.176 139.233,170.176 139.065,172.292 148.607,172.292 				"/>
				<polygon fill="#515151" points="160.971,170.176 151.654,170.176 151.789,172.292 161.332,172.292 				"/>
				<polygon fill="#515151" points="173.391,170.176 164.075,170.176 164.512,172.292 174.056,172.292 				"/>
				<polygon fill="#515151" points="185.812,170.176 176.495,170.176 177.236,172.292 186.779,172.292 				"/>
				<polygon fill="#515151" points="198.231,170.176 188.917,170.176 189.961,172.292 199.502,172.292 				"/>
				<polygon fill="#515151" points="210.653,170.176 201.337,170.176 202.685,172.292 212.227,172.292 				"/>
				<polygon fill="#515151" points="225.203,170.176 201.337,170.176 202.685,172.292 227.132,172.292 				"/>
			</g>
		</g>
		<path fill="#3B4141" d="M213.676,59.438H78.632c-9.097,0-16.471,7.374-16.471,16.471v71.5c0,9.098,7.374,16.473,16.471,16.473
			h135.044c9.096,0,16.471-7.375,16.471-16.473v-71.5C230.146,66.812,222.771,59.438,213.676,59.438z"/>
		<rect x="71.656" y="68.932" fill="#FFFFFF" width="148.995" height="85.455"/>
		<g opacity="0.23">
			<path fill="#201604" d="M98.632,160.842H82.586c-0.892,0-1.614,0.723-1.614,1.613l0,0c0,0.893,0.723,1.613,1.614,1.613h16.046
				c0.892,0,1.614-0.721,1.614-1.613l0,0C100.246,161.565,99.523,160.842,98.632,160.842z"/>
			<path fill="#201604" d="M210.86,160.842h-16.046c-0.892,0-1.613,0.723-1.613,1.613l0,0c0,0.893,0.722,1.613,1.613,1.613h16.046
				c0.894,0,1.614-0.721,1.614-1.613l0,0C212.475,161.565,211.754,160.842,210.86,160.842z"/>
		</g>
		<g>
			<path fill="#52514F" d="M98.063,160.274H82.017c-0.892,0-1.614,0.721-1.614,1.613l0,0c0,0.891,0.723,1.613,1.614,1.613h16.046
				c0.892,0,1.614-0.723,1.614-1.613l0,0C99.677,160.995,98.954,160.274,98.063,160.274z"/>
			<path fill="#52514F" d="M210.293,160.274h-16.048c-0.892,0-1.614,0.721-1.614,1.613l0,0c0,0.891,0.723,1.613,1.614,1.613h16.048
				c0.89,0,1.613-0.723,1.613-1.613l0,0C211.906,160.995,211.183,160.274,210.293,160.274z"/>
		</g>
		<g id="ëîãèí_1_">
			<rect x="130.001" y="86.213" fill="#52514F" width="75.332" height="52.032"/>
			<rect x="130.001" y="86.213" fill="#6BBDB0" width="75.332" height="9.495"/>
			<rect x="136.19" y="126.471" fill="#DA1224" width="20.236" height="4.179"/>
			<rect x="158.598" y="126.471" fill="#DA1224" width="6.457" height="4.179"/>
			<circle fill="#FFFFFF" cx="191.961" cy="91.37" r="2.249"/>
			<circle fill="#DA1224" cx="198.133" cy="91.37" r="2.249"/>
			<g>
				<rect x="136.269" y="113.748" fill="#F7F7F7" width="48.803" height="9.495"/>
				<g>
					<circle fill="#DA1224" cx="140.678" cy="118.482" r="1.692"/>
					<circle fill="#DA1224" cx="145.18" cy="118.482" r="1.692"/>
					<circle fill="#DA1224" cx="149.681" cy="118.482" r="1.692"/>
					<circle fill="#DA1224" cx="154.181" cy="118.482" r="1.692"/>
					<circle fill="#DA1224" cx="158.682" cy="118.482" r="1.692"/>
				</g>
			</g>
			<g>
				<rect x="136.269" y="101.785" fill="#F7F7F7" width="48.803" height="9.495"/>
				<path fill="#ADADAD" d="M155.002,105.535h-14.591c-0.786,0-1.425,0.637-1.425,1.424l0,0c0,0.787,0.639,1.424,1.425,1.424h14.591
					c0.786,0,1.425-0.637,1.425-1.424l0,0C156.427,106.172,155.788,105.535,155.002,105.535z"/>
			</g>
			<g>
				<rect x="188.893" y="101.785" fill="#6BBCB3" width="10.634" height="21.458"/>
				<g>
					<path fill="#595651" d="M191.889,115.692c-0.134,0-0.263-0.07-0.334-0.194c-0.105-0.184-0.041-0.419,0.144-0.525l4.152-2.374
						l-4.163-2.549c-0.181-0.111-0.238-0.348-0.127-0.53s0.347-0.239,0.529-0.127l4.603,2.818c0.303,0.185,0.297,0.626-0.011,0.803
						l-4.602,2.628C192.02,115.676,191.954,115.692,191.889,115.692z"/>
				</g>
			</g>
			<g id="ùèò_1_">
				<path fill="#6BBCB1" d="M104.128,40.827c0,0-32.96,31.99-51.863,36.353c0,0,8.24,78.522,51.863,93.063
					c43.622-14.541,51.861-93.063,51.861-93.063C137.087,72.817,104.128,40.827,104.128,40.827z"/>
				<path fill="#5A9E97" d="M104.128,40.827c0,0-0.123,0.119-0.338,0.325V170.12c0.113,0.039,0.223,0.084,0.338,0.123
					c43.622-14.541,51.861-93.063,51.861-93.063C137.087,72.817,104.128,40.827,104.128,40.827z"/>
				<g>
					<path fill="#FFFFFF" d="M104.126,158.547l-0.976-0.486c-26.204-13.08-36.168-58.486-38.598-72.091l-0.288-1.608l1.463-0.728
						c13.069-6.507,27.309-18.066,36.953-26.618l1.447-1.283l1.446,1.283c9.637,8.546,23.867,20.099,36.937,26.609l1.465,0.729
						l-0.289,1.61c-2.453,13.611-12.483,59.04-38.586,72.094L104.126,158.547z M69.138,86.791
						c4.917,26.199,16.555,56.807,34.986,66.856c18.359-10.031,30.014-40.651,34.974-66.866
						c-12.425-6.485-25.561-16.985-34.97-25.226C94.711,69.802,81.565,80.31,69.138,86.791z"/>
				</g>
				<g id="çàìîê_1_">
					<path fill="#DB2631" d="M96.074,97.321v-10.01l0.008-0.479c0.073-4.842,4.069-8.781,8.908-8.781
						c4.84,0,8.836,3.939,8.909,8.781l0.005,10.489h3.453V86.679c0-0.04-0.002-0.079-0.005-0.118l-0.029-0.601H117.3
						c-0.514-6.415-5.818-11.361-12.31-11.361c-6.502,0-11.813,4.964-12.313,11.394l-0.039,0.002l-0.011,0.566
						c-0.003,0.039-0.005,0.078-0.005,0.118v10.642H96.074z"/>
					<path opacity="0.22" fill="#201604" d="M96.074,97.321v-10.01l0.008-0.479c0.073-4.842,4.069-8.781,8.908-8.781
						c4.84,0,8.836,3.939,8.909,8.781l0.005,10.489h3.453V86.679c0-0.04-0.002-0.079-0.005-0.118l-0.029-0.601H117.3
						c-0.514-6.415-5.818-11.361-12.31-11.361c-6.502,0-11.813,4.964-12.313,11.394l-0.039,0.002l-0.011,0.566
						c-0.003,0.039-0.005,0.078-0.005,0.118v10.642H96.074z"/>
					<path fill="#DB2631" d="M94.349,96.171v-10.01l0.008-0.479c0.072-4.842,4.069-8.782,8.908-8.782
						c4.84,0,8.836,3.939,8.909,8.782l0.005,10.489h3.453V85.529c0-0.041-0.002-0.079-0.006-0.119l-0.029-0.601h-0.022
						c-0.514-6.415-5.818-11.361-12.31-11.361c-6.503,0-11.813,4.964-12.312,11.394l-0.041,0.003l-0.01,0.565
						c-0.003,0.04-0.005,0.078-0.005,0.119v10.642H94.349z"/>
					<path fill="#959493" d="M104.99,94.512L104.99,94.512c-9.636,0-17.447,7.811-17.447,17.447l0,0
						c0,9.636,7.812,17.448,17.447,17.448l0,0c9.637,0,17.447-7.812,17.447-17.448l0,0
						C122.438,102.323,114.627,94.512,104.99,94.512z"/>
					<path fill="#EDBC8B" d="M103.265,92.786L103.265,92.786c-9.636,0-17.447,7.812-17.447,17.448l0,0
						c0,9.636,7.812,17.447,17.447,17.447l0,0c9.636,0,17.447-7.811,17.447-17.447l0,0C120.712,100.598,112.9,92.786,103.265,92.786
						z"/>
					<path fill="#52514F" d="M107.837,107.018c0-2.525-2.047-4.572-4.572-4.572c-2.524,0-4.571,2.047-4.571,4.572
						c0,1.752,0.987,3.273,2.435,4.041v4.828c0,1.18,0.956,2.137,2.137,2.137c1.18,0,2.137-0.957,2.137-2.137v-4.828
						C106.849,110.291,107.837,108.77,107.837,107.018z"/>
				</g>
			</g>
		</g>
	</g>
</g>
</svg>
