<svg id="Layer_1" data-name="Layer 1" xmlns="http://www.w3.org/2000/svg" viewBox="0 0 540 540"><defs><style>.cls-1,.cls-3{fill:#1281dd;}.cls-1{opacity:0.03;}.cls-2{fill:none;stroke:#1281dd;stroke-linecap:round;stroke-linejoin:round;stroke-width:12px;}</style></defs><title>Create Account</title><path class="cls-1" d="M422.75,269.83c-7,51.1-78.64,114.39-153.89,153.89C163.75,478.89,183.35,320.31,115,269.83c-84.79-62.59,89.8-209.71,153.89-153.89C324.87,164.72,434.23,185.62,422.75,269.83Z"/><path class="cls-2" d="M330.12,179A59.92,59.92,0,1,1,270.2,119,60.08,60.08,0,0,1,330.12,179Z"/><path class="cls-3" d="M400.73,380.19a6,6,0,1,1-12,0c0-35.35-21.19-68.68-56.67-89.17A132,132,0,0,0,266.2,273.2a121.31,121.31,0,0,0-58.59,14.93c-34.75,19.21-56.34,54.49-56.34,92.06a6,6,0,0,1-12,0,113.28,113.28,0,0,1,17.29-60,123.87,123.87,0,0,1,45.25-42.57A133.27,133.27,0,0,1,266.2,261.2a144,144,0,0,1,71.86,19.43C377.3,303.28,400.73,340.5,400.73,380.19Z"/><path class="cls-3" d="M361.77,100.61c0,1-2,1.84-3.72,2.26-.46,1.72-1.22,3.55-2.09,3.55s-1.66-1.93-2.11-3.69c-1.77-.45-3.7-1.23-3.7-2.12S352,99,353.71,98.53c.41-1.69,1.27-3.73,2.25-3.73s1.8,1.93,2.22,3.59C359.84,98.82,361.77,99.65,361.77,100.61Z"/><path class="cls-3" d="M361.77,238.88c0,1-2,1.84-3.72,2.26-.46,1.72-1.22,3.55-2.09,3.55s-1.66-1.93-2.11-3.69c-1.77-.45-3.7-1.23-3.7-2.12s1.83-1.63,3.56-2.08c.41-1.69,1.27-3.73,2.25-3.73s1.8,1.93,2.22,3.59C359.84,237.08,361.77,237.92,361.77,238.88Z"/><path class="cls-3" d="M167.49,189.59c0,1-2,1.84-3.72,2.26-.46,1.72-1.22,3.55-2.09,3.55s-1.66-1.93-2.11-3.69c-1.77-.45-3.7-1.24-3.7-2.12s1.83-1.63,3.56-2.08c.41-1.69,1.27-3.73,2.25-3.73s1.8,1.93,2.22,3.59C165.56,187.79,167.49,188.63,167.49,189.59Z"/><path class="cls-2" d="M146,380.8s109.6,72,248.8,0"/></svg>