<?xml version="1.0" encoding="utf-8"?>
<!-- Generator: Adobe Illustrator 16.0.0, SVG Export Plug-In . SVG Version: 6.00 Build 0)  -->
<!DOCTYPE svg PUBLIC "-//W3C//DTD SVG 1.1//EN" "http://www.w3.org/Graphics/SVG/1.1/DTD/svg11.dtd">
<svg version="1.1" xmlns="http://www.w3.org/2000/svg" xmlns:xlink="http://www.w3.org/1999/xlink" x="0px" y="0px"
	 width="178.129px" height="50px" viewBox="0 0 178.129 50" enable-background="new 0 0 178.129 50" xml:space="preserve">
<g id="Layer_1">
	<path opacity="0.8" fill-rule="evenodd" clip-rule="evenodd" fill="#FFFFFF" d="M68.481,24.988l-7.217,12.509L54.05,50H39.622
		H26.414h-1.219H10.878c-1.08,0-1.961-0.881-1.961-1.983c0-1.082,0.881-1.965,1.961-1.965h2.588c1.084,0,1.966-0.881,1.966-1.961
		c0-1.083-0.881-1.964-1.966-1.964H6.911c-1.08,0-1.961-0.885-1.961-1.966c0-1.102,0.881-1.984,1.961-1.984h8.723
		c1.078,0,1.961-0.881,1.961-1.966c0-1.081-0.883-1.961-1.961-1.961h-2.709c-1.08,0-1.961-0.883-1.961-1.964
		c0-1.083,0.881-1.966,1.961-1.966h0.904l-3.064-5.332l3.064-5.309h-0.642c-1.103,0-1.984-0.88-1.984-1.964
		c0-1.082,0.881-1.963,1.984-1.963h2.585c1.083,0,1.965-0.883,1.965-1.966c0-1.103-0.882-1.984-1.965-1.984H9.219
		c-1.08,0-1.966-0.86-1.966-1.964c0-1.083,0.886-1.961,1.966-1.961h8.697c1.098,0,1.966-0.884,1.966-1.966s-0.868-1.966-1.966-1.966
		h-2.688c-1.083,0-1.961-0.883-1.961-1.964C13.268,0.88,14.146,0,15.229,0h9.966h2.785h11.643H54.05l7.214,12.504L68.481,24.988z
		 M39.622,42.286h-9.984l-5.208-9.019h6.996l1.705,2.967h6.492h6.489l4.732-8.217H36.595h-8.197h-6.995l-1.738-3.029l9.974-17.273
		h9.984h9.98l5.209,9.019h-6.993l-1.708-2.965h-6.489H33.13l-4.732,8.215h14.334h8.112h6.996l1.744,3.005l-9.98,17.298H39.622z
		 M4.27,7.877c-1.083,0-1.969,0.878-1.969,1.961c0,1.104,0.886,1.964,1.969,1.964c1.08,0,1.961-0.86,1.961-1.964
		C6.231,8.755,5.35,7.877,4.27,7.877L4.27,7.877z M6.754,0C5.651,0,4.771,0.88,4.771,1.981c0,1.082,0.881,1.964,1.984,1.964h3.545
		c1.083,0,1.969-0.883,1.969-1.964C12.268,0.88,11.382,0,10.299,0H6.754z M1.966,38.176C0.881,38.176,0,39.059,0,40.161
		c0,1.081,0.881,1.966,1.966,1.966c1.103,0,1.984-0.885,1.984-1.966C3.95,39.059,3.068,38.176,1.966,38.176L1.966,38.176z
		 M4.449,30.319c-1.083,0-1.964,0.883-1.964,1.966c0,1.082,0.881,1.964,1.964,1.964h3.545c1.084,0,1.966-0.883,1.966-1.964
		c0-1.083-0.881-1.966-1.966-1.966H4.449z"/>
	<path fill-rule="evenodd" clip-rule="evenodd" fill="#FFFFFF" d="M19.664,24.988h-8.899l3.064,5.332h-0.904
		c-1.08,0-1.961,0.883-1.961,1.966c0,1.082,0.881,1.964,1.961,1.964h2.709c1.078,0,1.961,0.88,1.961,1.961
		c0,1.085-0.883,1.966-1.961,1.966H6.911c-1.08,0-1.961,0.883-1.961,1.984c0,1.081,0.881,1.966,1.961,1.966h6.556
		c1.084,0,1.966,0.881,1.966,1.964c0,1.08-0.881,1.961-1.966,1.961h-2.588c-1.08,0-1.961,0.883-1.961,1.965
		c0,1.103,0.881,1.983,1.961,1.983h14.316h1.219h13.208H54.05l-4.447-7.714h-9.98h-9.984l-5.208-9.019h6.996l1.705,2.967h6.492
		h6.489l-4.748-8.217h-4.769h-8.197h-6.995L19.664,24.988z M9.959,32.285c0-1.083-0.881-1.966-1.966-1.966H4.449
		c-1.083,0-1.964,0.883-1.964,1.966c0,1.082,0.881,1.964,1.964,1.964h3.545C9.078,34.25,9.959,33.367,9.959,32.285L9.959,32.285z
		 M3.95,40.161c0-1.102-0.881-1.984-1.984-1.984C0.881,38.176,0,39.059,0,40.161c0,1.081,0.881,1.966,1.966,1.966
		C3.068,42.126,3.95,41.242,3.95,40.161L3.95,40.161z"/>
	<path fill-rule="evenodd" clip-rule="evenodd" fill="#FFFFFF" d="M19.882,5.911c0,1.082-0.868,1.966-1.966,1.966H9.219
		c-1.08,0-1.966,0.878-1.966,1.961c0,1.104,0.886,1.964,1.966,1.964h6.553c1.083,0,1.965,0.881,1.965,1.984
		c0,1.083-0.882,1.966-1.965,1.966h-2.585c-1.103,0-1.984,0.881-1.984,1.963c0,1.084,0.881,1.964,1.984,1.964h0.642l-3.064,5.309
		h8.899l9.974-17.273h9.984h9.98L54.05,0H39.622H27.979h-2.785h-9.966c-1.083,0-1.961,0.88-1.961,1.981
		c0,1.082,0.878,1.964,1.961,1.964h2.688C19.015,3.945,19.882,4.83,19.882,5.911L19.882,5.911z M41.363,21.983l4.748-8.215h-6.489
		H33.13l-4.732,8.215H41.363z M4.27,11.802c1.08,0,1.961-0.86,1.961-1.964c0-1.083-0.881-1.961-1.961-1.961
		c-1.083,0-1.969,0.878-1.969,1.961C2.301,10.942,3.187,11.802,4.27,11.802L4.27,11.802z M6.754,3.945h3.545
		c1.083,0,1.969-0.883,1.969-1.964C12.268,0.88,11.382,0,10.299,0H6.754C5.651,0,4.771,0.88,4.771,1.981
		C4.771,3.063,5.651,3.945,6.754,3.945L6.754,3.945z"/>
</g>
<g id="Layer_2">
	<g>
		<path fill="#FFFFFF" d="M84.889,16.783c-0.12,0.239-0.258,0.407-0.415,0.504s-0.344,0.146-0.561,0.146s-0.461-0.083-0.732-0.252
			c-0.271-0.168-0.591-0.355-0.959-0.561s-0.8-0.393-1.293-0.561c-0.494-0.168-1.077-0.252-1.749-0.252
			c-0.607,0-1.136,0.073-1.586,0.22c-0.45,0.146-0.83,0.35-1.139,0.61s-0.54,0.572-0.691,0.936
			c-0.152,0.363-0.228,0.762-0.228,1.195c0,0.553,0.155,1.014,0.464,1.382c0.309,0.369,0.718,0.683,1.228,0.943
			c0.509,0.26,1.089,0.494,1.74,0.7c0.65,0.206,1.314,0.425,1.992,0.659c0.678,0.233,1.342,0.504,1.993,0.813
			c0.65,0.309,1.23,0.699,1.74,1.171s0.919,1.049,1.228,1.732c0.309,0.683,0.464,1.513,0.464,2.488c0,1.063-0.182,2.058-0.545,2.985
			c-0.364,0.927-0.895,1.735-1.594,2.423s-1.553,1.23-2.562,1.627c-1.009,0.396-2.164,0.593-3.464,0.593
			c-0.749,0-1.486-0.072-2.212-0.219s-1.423-0.355-2.09-0.627c-0.667-0.271-1.291-0.596-1.871-0.976
			c-0.58-0.379-1.098-0.802-1.553-1.269l1.269-2.098c0.119-0.152,0.263-0.279,0.431-0.382c0.168-0.103,0.355-0.154,0.561-0.154
			c0.271,0,0.564,0.111,0.878,0.333s0.686,0.469,1.114,0.74c0.428,0.271,0.932,0.518,1.513,0.74c0.58,0.222,1.276,0.333,2.09,0.333
			c1.247,0,2.212-0.295,2.895-0.887c0.683-0.591,1.025-1.439,1.025-2.545c0-0.618-0.155-1.122-0.464-1.513
			c-0.309-0.39-0.718-0.718-1.228-0.984c-0.51-0.266-1.089-0.49-1.74-0.675c-0.65-0.185-1.312-0.385-1.984-0.602
			c-0.672-0.217-1.333-0.477-1.984-0.781c-0.651-0.303-1.231-0.699-1.741-1.187c-0.51-0.488-0.919-1.098-1.228-1.83
			c-0.309-0.732-0.463-1.634-0.463-2.708c0-0.856,0.171-1.691,0.512-2.505c0.342-0.813,0.84-1.534,1.497-2.163
			c0.656-0.628,1.461-1.133,2.416-1.513c0.954-0.379,2.043-0.569,3.269-0.569c1.388,0,2.667,0.217,3.838,0.651
			s2.168,1.041,2.993,1.822L84.889,16.783z"/>
		<path fill="#FFFFFF" d="M102.057,27.347c0.157,0.374,0.312,0.751,0.464,1.13c0.151-0.39,0.309-0.775,0.472-1.155
			c0.162-0.379,0.336-0.743,0.521-1.09l6.961-13.028c0.087-0.163,0.176-0.293,0.269-0.391c0.092-0.098,0.195-0.168,0.309-0.211
			c0.114-0.043,0.241-0.07,0.383-0.081c0.141-0.011,0.309-0.017,0.504-0.017h3.302v23.519h-3.854V20.833
			c0-0.282,0.008-0.591,0.024-0.927c0.016-0.336,0.04-0.678,0.073-1.025l-7.108,13.337c-0.162,0.304-0.374,0.54-0.634,0.708
			c-0.261,0.168-0.564,0.252-0.911,0.252h-0.602c-0.348,0-0.65-0.084-0.911-0.252c-0.26-0.168-0.472-0.404-0.634-0.708
			l-7.206-13.386c0.044,0.358,0.073,0.708,0.09,1.049c0.017,0.341,0.024,0.659,0.024,0.951v15.191h-3.854V12.505h3.302
			c0.194,0,0.363,0.006,0.504,0.017s0.269,0.038,0.382,0.081c0.114,0.043,0.22,0.114,0.317,0.211s0.189,0.228,0.276,0.391
			l7.026,13.061C101.729,26.612,101.899,26.973,102.057,27.347z"/>
		<path fill="#FFFFFF" d="M140.66,36.024h-3.383c-0.38,0-0.691-0.095-0.936-0.284c-0.243-0.19-0.42-0.426-0.528-0.708l-1.757-4.798
			h-9.742l-1.757,4.798c-0.087,0.25-0.258,0.478-0.512,0.684c-0.256,0.206-0.567,0.309-0.936,0.309h-3.399l9.238-23.519h4.473
			L140.66,36.024z M125.437,27.144h7.498l-2.862-7.824c-0.13-0.347-0.274-0.756-0.432-1.228s-0.312-0.984-0.463-1.537
			c-0.152,0.553-0.301,1.068-0.447,1.545c-0.146,0.478-0.29,0.895-0.432,1.252L125.437,27.144z"/>
		<path fill="#FFFFFF" d="M159.885,12.505v1.61c0,0.499-0.141,0.955-0.423,1.366l-12.068,17.045h12.199v3.497h-17.875V34.3
			c0-0.217,0.037-0.425,0.113-0.626s0.174-0.388,0.293-0.562l12.101-17.126h-11.743v-3.481H159.885z"/>
		<path fill="#FFFFFF" d="M177.987,12.505v3.481h-10.426v6.522h8.214v3.367h-8.214v6.652h10.426v3.497h-14.833V12.505H177.987z"/>
	</g>
</g>
</svg>
